<?xml version="1.0" encoding="UTF-8" standalone="no" ?>
<!DOCTYPE svg PUBLIC "-//W3C//DTD SVG 1.1//EN" "http://www.w3.org/Graphics/SVG/1.1/DTD/svg11.dtd">
<svg xmlns="http://www.w3.org/2000/svg" xmlns:xlink="http://www.w3.org/1999/xlink" version="1.1" width="337.4683330154419" height="114.67000000000003" xml:space="preserve">
<desc>Created with Fabric.js 1.6.0-rc.1</desc>
<defs></defs>
  <g transform="translate(82.51 36.72)">
   <text font-family="Neuropol" font-size="40" font-weight="normal" style="stroke: none; stroke-width: 1; stroke-dasharray: none; stroke-linecap: butt; stroke-linejoin: miter; stroke-miterlimit: 10; fill: #000000; fill-rule: nonzero; opacity: 1;" ><tspan x="0" y="8.98" fill="#000000"></tspan></text>
 </g>
  <g transform="translate(153.66 66.72) scale(0.99 1)">
   <text font-family="Kronika" font-size="40" font-weight="normal" style="stroke: none; stroke-width: 1; stroke-dasharray: none; stroke-linecap: butt; stroke-linejoin: miter; stroke-miterlimit: 10; fill: #0dd91a; fill-rule: nonzero; opacity: 1;" ><tspan x="-56.72" y="8.98" style="stroke: none; stroke-width: 0; stroke-dasharray: none; stroke-linecap: butt; stroke-linejoin: miter; stroke-miterlimit: 4; fill: #0dd91a; fill-rule: ; opacity: 1;">g</tspan><tspan x="-32.72" y="8.98" style="stroke: none; stroke-width: 0; stroke-dasharray: none; stroke-linecap: butt; stroke-linejoin: miter; stroke-miterlimit: 4; fill: #0dd91a; fill-rule: ; opacity: 1;">r</tspan><tspan x="-14.41" y="8.98" style="stroke: none; stroke-width: 0; stroke-dasharray: none; stroke-linecap: butt; stroke-linejoin: miter; stroke-miterlimit: 4; fill: #0dd91a; fill-rule: ; opacity: 1;">e</tspan><tspan x="9.97" y="8.98" style="stroke: none; stroke-width: 0; stroke-dasharray: none; stroke-linecap: butt; stroke-linejoin: miter; stroke-miterlimit: 4; fill: #0dd91a; fill-rule: ; opacity: 1;">e</tspan><tspan x="34.34" y="8.98" style="stroke: none; stroke-width: 0; stroke-dasharray: none; stroke-linecap: butt; stroke-linejoin: miter; stroke-miterlimit: 4; fill: #0dd91a; fill-rule: ; opacity: 1;">n</tspan></text>
 </g>
  <g transform="translate(268.24 66.72)">
   <text font-family="Kronika" font-size="40" font-weight="normal" style="stroke: none; stroke-width: 1; stroke-dasharray: none; stroke-linecap: butt; stroke-linejoin: miter; stroke-miterlimit: 10; fill: #000000; fill-rule: nonzero; opacity: 1;" ><tspan x="-59.73" y="8.98" style="stroke: none; stroke-width: 0; stroke-dasharray: none; stroke-linecap: butt; stroke-linejoin: miter; stroke-miterlimit: 4; fill: #000000; fill-rule: ; opacity: 1;">e</tspan><tspan x="-35.35" y="8.98" style="stroke: none; stroke-width: 0; stroke-dasharray: none; stroke-linecap: butt; stroke-linejoin: miter; stroke-miterlimit: 4; fill: #000000; fill-rule: ; opacity: 1;">a</tspan><tspan x="-10.63" y="8.98" style="stroke: none; stroke-width: 0; stroke-dasharray: none; stroke-linecap: butt; stroke-linejoin: miter; stroke-miterlimit: 4; fill: #000000; fill-rule: ; opacity: 1;">t</tspan><tspan x="4.19" y="8.98" style="stroke: none; stroke-width: 0; stroke-dasharray: none; stroke-linecap: butt; stroke-linejoin: miter; stroke-miterlimit: 4; fill: #000000; fill-rule: ; opacity: 1;">i</tspan><tspan x="13.35" y="8.98" style="stroke: none; stroke-width: 0; stroke-dasharray: none; stroke-linecap: butt; stroke-linejoin: miter; stroke-miterlimit: 4; fill: #000000; fill-rule: ; opacity: 1;">n</tspan><tspan x="35.73" y="8.98" style="stroke: none; stroke-width: 0; stroke-dasharray: none; stroke-linecap: butt; stroke-linejoin: miter; stroke-miterlimit: 4; fill: #000000; fill-rule: ; opacity: 1;">g</tspan></text>
 </g>
<g style="stroke: none; stroke-width: 1; stroke-dasharray: none; stroke-linecap: butt; stroke-linejoin: miter; stroke-miterlimit: 10; fill: none; fill-rule: nonzero; opacity: 1;" transform="translate(267 35.410000000000025) scale(0.04 0.04)" >
  <path d="M 510.5 228.287 c -6.064 -55.997 -30.54 -110.378 -73.468 -153.306 c -99.977 -99.976 -262.07 -99.976 -362.046 0 c -99.977 99.977 -99.977 262.07 0 362.046 c 51.789 51.789 120.244 76.74 188.1 74.876 L 510.5 228.287 z" style="stroke: none; stroke-width: 1; stroke-dasharray: none; stroke-linecap: butt; stroke-linejoin: miter; stroke-miterlimit: 10; fill: #000004; fill-rule: nonzero; opacity: 1;" transform=" matrix(1 0 0 1 0 0) " stroke-linecap="round" />
  <path d="M 510.5 228.287 l -72.757 -72.757 l -21.59 21.59 l -127.88 -127.88 L 124.736 373.568 l 138.351 138.335 c 63.139 -1.735 125.757 -26.688 173.945 -74.876 C 494.081 379.979 518.558 302.706 510.5 228.287 z" style="stroke: none; stroke-width: 1; stroke-dasharray: none; stroke-linecap: butt; stroke-linejoin: miter; stroke-miterlimit: 10; fill: #111718; fill-rule: nonzero; opacity: 1;" transform=" matrix(1 0 0 1 0 0) " stroke-linecap="round" />
  <rect x="205.38" y="270.93" rx="0" ry="0" width="22.26" height="111.74" style="stroke: none; stroke-width: 1; stroke-dasharray: none; stroke-linecap: butt; stroke-linejoin: miter; stroke-miterlimit: 10; fill: #DDD532; fill-rule: nonzero; opacity: 1;" transform=" matrix(0.7071 -0.7071 0.7071 0.7071 -167.6675 248.813) "/>
  <path d="M 161.919 238.628 l 54.035 87.636 c -36.409 14.906 -89.489 4.956 -118.058 -23.611 c -28.569 -28.568 -38.518 -81.649 -23.611 -118.058 L 161.919 238.628 z" style="stroke: none; stroke-width: 1; stroke-dasharray: none; stroke-linecap: butt; stroke-linejoin: miter; stroke-miterlimit: 10; fill: #0ddb21; fill-rule: nonzero; opacity: 1;" transform=" matrix(1 0 0 1 0 0) " stroke-linecap="round" />
  <path d="M 192.341 208.204 c 28.569 28.569 38.518 81.649 23.611 118.058 l -141.67 -141.67 C 110.692 169.687 163.773 179.636 192.341 208.204 z" style="stroke: none; stroke-width: 1; stroke-dasharray: none; stroke-linecap: butt; stroke-linejoin: miter; stroke-miterlimit: 10; fill: #1c942a; fill-rule: nonzero; opacity: 1;" transform=" matrix(1 0 0 1 0 0) " stroke-linecap="round" />
  <rect x="205.39" y="335.3" rx="0" ry="0" width="22.26" height="111.74" style="stroke: none; stroke-width: 1; stroke-dasharray: none; stroke-linecap: butt; stroke-linejoin: miter; stroke-miterlimit: 10; fill: #DDD532; fill-rule: nonzero; opacity: 1;" transform=" matrix(0.7071 -0.7071 0.7071 0.7071 -213.179 267.6722) "/>
  <path d="M 175.005 323.298 l 42.427 68.81 c -28.588 11.704 -70.266 3.892 -92.696 -18.539 c -22.431 -22.432 -30.243 -64.109 -18.539 -92.696 L 175.005 323.298 z" style="stroke: none; stroke-width: 1; stroke-dasharray: none; stroke-linecap: butt; stroke-linejoin: miter; stroke-miterlimit: 10; fill: #229106; fill-rule: nonzero; opacity: 1;" transform=" matrix(1 0 0 1 0 0) " stroke-linecap="round" />
  <path d="M 198.893 299.41 c 22.432 22.432 30.243 64.109 18.539 92.696 L 106.197 280.871 C 134.783 269.167 176.461 276.98 198.893 299.41 z" style="stroke: none; stroke-width: 1; stroke-dasharray: none; stroke-linecap: butt; stroke-linejoin: miter; stroke-miterlimit: 10; fill: #44702A; fill-rule: nonzero; opacity: 1;" transform=" matrix(1 0 0 1 0 0) " stroke-linecap="round" />
  <rect x="284.4" y="241.87" rx="0" ry="0" width="22.26" height="111.74" style="stroke: none; stroke-width: 1; stroke-dasharray: none; stroke-linecap: butt; stroke-linejoin: miter; stroke-miterlimit: 10; fill: #BEC130; fill-rule: nonzero; opacity: 1;" transform=" matrix(-0.7071 -0.7071 0.7071 -0.7071 293.97 717.2514) "/>
  <rect x="284.4" y="306.24" rx="0" ry="0" width="22.26" height="111.74" style="stroke: none; stroke-width: 1; stroke-dasharray: none; stroke-linecap: butt; stroke-linejoin: miter; stroke-miterlimit: 10; fill: #BEC130; fill-rule: nonzero; opacity: 1;" transform=" matrix(-0.7071 -0.7071 0.7071 -0.7071 248.4502 827.1372) "/>
  <rect x="244.89" y="140.99" rx="0" ry="0" width="22.26" height="345.05" style="stroke: none; stroke-width: 1; stroke-dasharray: none; stroke-linecap: butt; stroke-linejoin: miter; stroke-miterlimit: 10; fill: #DDD532; fill-rule: nonzero; opacity: 1;" transform=" matrix(1 0 0 1 0 0) "/>
  <path d="M 232.253 126.892 l 23.759 100.176 c 36.286 -15.204 66.784 -59.774 66.784 -100.176 S 292.299 41.92 256.013 26.716 L 232.253 126.892 z" style="stroke: none; stroke-width: 1; stroke-dasharray: none; stroke-linecap: butt; stroke-linejoin: miter; stroke-miterlimit: 10; fill: #44702A; fill-rule: nonzero; opacity: 1;" transform=" matrix(1 0 0 1 0 0) " stroke-linecap="round" />
  <path d="M 189.229 126.892 c 0 40.402 30.498 84.971 66.784 100.176 V 26.716 C 219.728 41.92 189.229 86.49 189.229 126.892 z" style="stroke: none; stroke-width: 1; stroke-dasharray: none; stroke-linecap: butt; stroke-linejoin: miter; stroke-miterlimit: 10; fill: #229106; fill-rule: nonzero; opacity: 1;" transform=" matrix(1 0 0 1 0 0) " stroke-linecap="round" />
  <path d="M 350.107 209.566 l -54.035 87.636 c 36.409 14.906 89.49 4.956 118.058 -23.611 c 28.568 -28.568 38.518 -81.649 23.611 -118.058 L 350.107 209.566 z" style="stroke: none; stroke-width: 1; stroke-dasharray: none; stroke-linecap: butt; stroke-linejoin: miter; stroke-miterlimit: 10; fill: #44702A; fill-rule: nonzero; opacity: 1;" transform=" matrix(1 0 0 1 0 0) " stroke-linecap="round" />
  <path d="M 319.685 179.142 c -28.569 28.569 -38.518 81.649 -23.611 118.058 l 141.67 -141.67 C 401.334 140.625 348.254 150.574 319.685 179.142 z" style="stroke: none; stroke-width: 1; stroke-dasharray: none; stroke-linecap: butt; stroke-linejoin: miter; stroke-miterlimit: 10; fill: #229106; fill-rule: nonzero; opacity: 1;" transform=" matrix(1 0 0 1 0 0) " stroke-linecap="round" />
  <path d="M 337.021 294.235 l -42.427 68.81 c 28.588 11.704 70.266 3.892 92.696 -18.539 c 22.432 -22.432 30.243 -64.109 18.539 -92.696 L 337.021 294.235 z" style="stroke: none; stroke-width: 1; stroke-dasharray: none; stroke-linecap: butt; stroke-linejoin: miter; stroke-miterlimit: 10; fill: #1c942a; fill-rule: nonzero; opacity: 1;" transform=" matrix(1 0 0 1 0 0) " stroke-linecap="round" />
  <path d="M 313.134 270.348 c -22.432 22.432 -30.243 64.109 -18.539 92.696 L 405.83 251.809 C 377.242 240.105 335.565 247.917 313.134 270.348 z" style="stroke: none; stroke-width: 1; stroke-dasharray: none; stroke-linecap: butt; stroke-linejoin: miter; stroke-miterlimit: 10; fill: #0ddb21; fill-rule: nonzero; opacity: 1;" transform=" matrix(1 0 0 1 0 0) " stroke-linecap="round" />
  <path d="M 242.461 169.933 l 13.552 57.135 c 20.695 -8.672 38.09 -34.092 38.09 -57.135 s -17.395 -48.463 -38.09 -57.135 L 242.461 169.933 z" style="stroke: none; stroke-width: 1; stroke-dasharray: none; stroke-linecap: butt; stroke-linejoin: miter; stroke-miterlimit: 10; fill: #1c942a; fill-rule: nonzero; opacity: 1;" transform=" matrix(1 0 0 1 0 0) " stroke-linecap="round" />
  <path d="M 217.923 169.933 c 0 23.043 17.395 48.463 38.09 57.135 v -114.27 C 235.318 121.47 217.923 146.889 217.923 169.933 z" style="stroke: none; stroke-width: 1; stroke-dasharray: none; stroke-linecap: butt; stroke-linejoin: miter; stroke-miterlimit: 10; fill: #0ddb21; fill-rule: nonzero; opacity: 1;" transform=" matrix(1 0 0 1 0 0) " stroke-linecap="round" />
  <path d="M 286.819 212.316 l -30.819 49.982 c 20.765 8.502 51.04 2.827 67.334 -13.467 c 16.294 -16.294 21.969 -46.568 13.467 -67.334 L 286.819 212.316 z" style="stroke: none; stroke-width: 1; stroke-dasharray: none; stroke-linecap: butt; stroke-linejoin: miter; stroke-miterlimit: 10; fill: #1c942a; fill-rule: nonzero; opacity: 1;" transform=" matrix(1 0 0 1 0 0) " stroke-linecap="round" />
  <path d="M 269.468 194.965 c -16.294 16.294 -21.969 46.568 -13.467 67.334 l 80.801 -80.801 C 316.035 172.996 285.761 178.671 269.468 194.965 z" style="stroke: none; stroke-width: 1; stroke-dasharray: none; stroke-linecap: butt; stroke-linejoin: miter; stroke-miterlimit: 10; fill: #0ddb21; fill-rule: nonzero; opacity: 1;" transform=" matrix(1 0 0 1 0 0) " stroke-linecap="round" />
  <path d="M 225.182 212.316 l 30.819 49.982 c -20.765 8.502 -51.041 2.827 -67.334 -13.467 c -16.294 -16.294 -21.969 -46.568 -13.467 -67.334 L 225.182 212.316 z" style="stroke: none; stroke-width: 1; stroke-dasharray: none; stroke-linecap: butt; stroke-linejoin: miter; stroke-miterlimit: 10; fill: #229106; fill-rule: nonzero; opacity: 1;" transform=" matrix(1 0 0 1 0 0) " stroke-linecap="round" />
  <path d="M 242.534 194.965 c 16.294 16.294 21.969 46.568 13.467 67.334 L 175.2 181.498 C 195.965 172.996 226.24 178.671 242.534 194.965 z" style="stroke: none; stroke-width: 1; stroke-dasharray: none; stroke-linecap: butt; stroke-linejoin: miter; stroke-miterlimit: 10; fill: #44702A; fill-rule: nonzero; opacity: 1;" transform=" matrix(1 0 0 1 0 0) " stroke-linecap="round" />
</g>
<g style="stroke: none; stroke-width: 1; stroke-dasharray: none; stroke-linecap: butt; stroke-linejoin: miter; stroke-miterlimit: 10; fill: none; fill-rule: nonzero; opacity: 1;" transform="translate(10 27.720000000000027) scale(0.16 0.15)" >
  <path d="M 510.5 228.287 c -6.064 -55.997 -30.54 -110.378 -73.468 -153.306 c -99.977 -99.976 -262.07 -99.976 -362.046 0 c -99.977 99.977 -99.977 262.07 0 362.046 c 51.789 51.789 120.244 76.74 188.1 74.876 L 510.5 228.287 z" style="stroke: none; stroke-width: 1; stroke-dasharray: none; stroke-linecap: butt; stroke-linejoin: miter; stroke-miterlimit: 10; fill: #000004; fill-rule: nonzero; opacity: 1;" transform=" matrix(1 0 0 1 0 0) " stroke-linecap="round" />
  <path d="M 510.5 228.287 l -72.757 -72.757 l -21.59 21.59 l -127.88 -127.88 L 124.736 373.568 l 138.351 138.335 c 63.139 -1.735 125.757 -26.688 173.945 -74.876 C 494.081 379.979 518.558 302.706 510.5 228.287 z" style="stroke: none; stroke-width: 1; stroke-dasharray: none; stroke-linecap: butt; stroke-linejoin: miter; stroke-miterlimit: 10; fill: #111718; fill-rule: nonzero; opacity: 1;" transform=" matrix(1 0 0 1 0 0) " stroke-linecap="round" />
  <rect x="205.38" y="270.93" rx="0" ry="0" width="22.26" height="111.74" style="stroke: none; stroke-width: 1; stroke-dasharray: none; stroke-linecap: butt; stroke-linejoin: miter; stroke-miterlimit: 10; fill: #DDD532; fill-rule: nonzero; opacity: 1;" transform=" matrix(0.7071 -0.7071 0.7071 0.7071 -167.6675 248.813) "/>
  <path d="M 161.919 238.628 l 54.035 87.636 c -36.409 14.906 -89.489 4.956 -118.058 -23.611 c -28.569 -28.568 -38.518 -81.649 -23.611 -118.058 L 161.919 238.628 z" style="stroke: none; stroke-width: 1; stroke-dasharray: none; stroke-linecap: butt; stroke-linejoin: miter; stroke-miterlimit: 10; fill: #0ddb21; fill-rule: nonzero; opacity: 1;" transform=" matrix(1 0 0 1 0 0) " stroke-linecap="round" />
  <path d="M 192.341 208.204 c 28.569 28.569 38.518 81.649 23.611 118.058 l -141.67 -141.67 C 110.692 169.687 163.773 179.636 192.341 208.204 z" style="stroke: none; stroke-width: 1; stroke-dasharray: none; stroke-linecap: butt; stroke-linejoin: miter; stroke-miterlimit: 10; fill: #1c942a; fill-rule: nonzero; opacity: 1;" transform=" matrix(1 0 0 1 0 0) " stroke-linecap="round" />
  <rect x="205.39" y="335.3" rx="0" ry="0" width="22.26" height="111.74" style="stroke: none; stroke-width: 1; stroke-dasharray: none; stroke-linecap: butt; stroke-linejoin: miter; stroke-miterlimit: 10; fill: #DDD532; fill-rule: nonzero; opacity: 1;" transform=" matrix(0.7071 -0.7071 0.7071 0.7071 -213.179 267.6722) "/>
  <path d="M 175.005 323.298 l 42.427 68.81 c -28.588 11.704 -70.266 3.892 -92.696 -18.539 c -22.431 -22.432 -30.243 -64.109 -18.539 -92.696 L 175.005 323.298 z" style="stroke: none; stroke-width: 1; stroke-dasharray: none; stroke-linecap: butt; stroke-linejoin: miter; stroke-miterlimit: 10; fill: #229106; fill-rule: nonzero; opacity: 1;" transform=" matrix(1 0 0 1 0 0) " stroke-linecap="round" />
  <path d="M 198.893 299.41 c 22.432 22.432 30.243 64.109 18.539 92.696 L 106.197 280.871 C 134.783 269.167 176.461 276.98 198.893 299.41 z" style="stroke: none; stroke-width: 1; stroke-dasharray: none; stroke-linecap: butt; stroke-linejoin: miter; stroke-miterlimit: 10; fill: #44702A; fill-rule: nonzero; opacity: 1;" transform=" matrix(1 0 0 1 0 0) " stroke-linecap="round" />
  <rect x="284.4" y="241.87" rx="0" ry="0" width="22.26" height="111.74" style="stroke: none; stroke-width: 1; stroke-dasharray: none; stroke-linecap: butt; stroke-linejoin: miter; stroke-miterlimit: 10; fill: #BEC130; fill-rule: nonzero; opacity: 1;" transform=" matrix(-0.7071 -0.7071 0.7071 -0.7071 293.97 717.2514) "/>
  <rect x="284.4" y="306.24" rx="0" ry="0" width="22.26" height="111.74" style="stroke: none; stroke-width: 1; stroke-dasharray: none; stroke-linecap: butt; stroke-linejoin: miter; stroke-miterlimit: 10; fill: #BEC130; fill-rule: nonzero; opacity: 1;" transform=" matrix(-0.7071 -0.7071 0.7071 -0.7071 248.4502 827.1372) "/>
  <rect x="244.89" y="140.99" rx="0" ry="0" width="22.26" height="345.05" style="stroke: none; stroke-width: 1; stroke-dasharray: none; stroke-linecap: butt; stroke-linejoin: miter; stroke-miterlimit: 10; fill: #DDD532; fill-rule: nonzero; opacity: 1;" transform=" matrix(1 0 0 1 0 0) "/>
  <path d="M 232.253 126.892 l 23.759 100.176 c 36.286 -15.204 66.784 -59.774 66.784 -100.176 S 292.299 41.92 256.013 26.716 L 232.253 126.892 z" style="stroke: none; stroke-width: 1; stroke-dasharray: none; stroke-linecap: butt; stroke-linejoin: miter; stroke-miterlimit: 10; fill: #44702A; fill-rule: nonzero; opacity: 1;" transform=" matrix(1 0 0 1 0 0) " stroke-linecap="round" />
  <path d="M 189.229 126.892 c 0 40.402 30.498 84.971 66.784 100.176 V 26.716 C 219.728 41.92 189.229 86.49 189.229 126.892 z" style="stroke: none; stroke-width: 1; stroke-dasharray: none; stroke-linecap: butt; stroke-linejoin: miter; stroke-miterlimit: 10; fill: #229106; fill-rule: nonzero; opacity: 1;" transform=" matrix(1 0 0 1 0 0) " stroke-linecap="round" />
  <path d="M 350.107 209.566 l -54.035 87.636 c 36.409 14.906 89.49 4.956 118.058 -23.611 c 28.568 -28.568 38.518 -81.649 23.611 -118.058 L 350.107 209.566 z" style="stroke: none; stroke-width: 1; stroke-dasharray: none; stroke-linecap: butt; stroke-linejoin: miter; stroke-miterlimit: 10; fill: #44702A; fill-rule: nonzero; opacity: 1;" transform=" matrix(1 0 0 1 0 0) " stroke-linecap="round" />
  <path d="M 319.685 179.142 c -28.569 28.569 -38.518 81.649 -23.611 118.058 l 141.67 -141.67 C 401.334 140.625 348.254 150.574 319.685 179.142 z" style="stroke: none; stroke-width: 1; stroke-dasharray: none; stroke-linecap: butt; stroke-linejoin: miter; stroke-miterlimit: 10; fill: #229106; fill-rule: nonzero; opacity: 1;" transform=" matrix(1 0 0 1 0 0) " stroke-linecap="round" />
  <path d="M 337.021 294.235 l -42.427 68.81 c 28.588 11.704 70.266 3.892 92.696 -18.539 c 22.432 -22.432 30.243 -64.109 18.539 -92.696 L 337.021 294.235 z" style="stroke: none; stroke-width: 1; stroke-dasharray: none; stroke-linecap: butt; stroke-linejoin: miter; stroke-miterlimit: 10; fill: #1c942a; fill-rule: nonzero; opacity: 1;" transform=" matrix(1 0 0 1 0 0) " stroke-linecap="round" />
  <path d="M 313.134 270.348 c -22.432 22.432 -30.243 64.109 -18.539 92.696 L 405.83 251.809 C 377.242 240.105 335.565 247.917 313.134 270.348 z" style="stroke: none; stroke-width: 1; stroke-dasharray: none; stroke-linecap: butt; stroke-linejoin: miter; stroke-miterlimit: 10; fill: #0ddb21; fill-rule: nonzero; opacity: 1;" transform=" matrix(1 0 0 1 0 0) " stroke-linecap="round" />
  <path d="M 242.461 169.933 l 13.552 57.135 c 20.695 -8.672 38.09 -34.092 38.09 -57.135 s -17.395 -48.463 -38.09 -57.135 L 242.461 169.933 z" style="stroke: none; stroke-width: 1; stroke-dasharray: none; stroke-linecap: butt; stroke-linejoin: miter; stroke-miterlimit: 10; fill: #1c942a; fill-rule: nonzero; opacity: 1;" transform=" matrix(1 0 0 1 0 0) " stroke-linecap="round" />
  <path d="M 217.923 169.933 c 0 23.043 17.395 48.463 38.09 57.135 v -114.27 C 235.318 121.47 217.923 146.889 217.923 169.933 z" style="stroke: none; stroke-width: 1; stroke-dasharray: none; stroke-linecap: butt; stroke-linejoin: miter; stroke-miterlimit: 10; fill: #0ddb21; fill-rule: nonzero; opacity: 1;" transform=" matrix(1 0 0 1 0 0) " stroke-linecap="round" />
  <path d="M 286.819 212.316 l -30.819 49.982 c 20.765 8.502 51.04 2.827 67.334 -13.467 c 16.294 -16.294 21.969 -46.568 13.467 -67.334 L 286.819 212.316 z" style="stroke: none; stroke-width: 1; stroke-dasharray: none; stroke-linecap: butt; stroke-linejoin: miter; stroke-miterlimit: 10; fill: #1c942a; fill-rule: nonzero; opacity: 1;" transform=" matrix(1 0 0 1 0 0) " stroke-linecap="round" />
  <path d="M 269.468 194.965 c -16.294 16.294 -21.969 46.568 -13.467 67.334 l 80.801 -80.801 C 316.035 172.996 285.761 178.671 269.468 194.965 z" style="stroke: none; stroke-width: 1; stroke-dasharray: none; stroke-linecap: butt; stroke-linejoin: miter; stroke-miterlimit: 10; fill: #0ddb21; fill-rule: nonzero; opacity: 1;" transform=" matrix(1 0 0 1 0 0) " stroke-linecap="round" />
  <path d="M 225.182 212.316 l 30.819 49.982 c -20.765 8.502 -51.041 2.827 -67.334 -13.467 c -16.294 -16.294 -21.969 -46.568 -13.467 -67.334 L 225.182 212.316 z" style="stroke: none; stroke-width: 1; stroke-dasharray: none; stroke-linecap: butt; stroke-linejoin: miter; stroke-miterlimit: 10; fill: #229106; fill-rule: nonzero; opacity: 1;" transform=" matrix(1 0 0 1 0 0) " stroke-linecap="round" />
  <path d="M 242.534 194.965 c 16.294 16.294 21.969 46.568 13.467 67.334 L 175.2 181.498 C 195.965 172.996 226.24 178.671 242.534 194.965 z" style="stroke: none; stroke-width: 1; stroke-dasharray: none; stroke-linecap: butt; stroke-linejoin: miter; stroke-miterlimit: 10; fill: #44702A; fill-rule: nonzero; opacity: 1;" transform=" matrix(1 0 0 1 0 0) " stroke-linecap="round" />
</g>
</svg>